<svg id="Component_10_1" data-name="Component 10 – 1" xmlns="http://www.w3.org/2000/svg" xmlns:xlink="http://www.w3.org/1999/xlink" width="1523" height="1101" viewBox="0 0 1523 1101">
  <defs>
    <clipPath id="clip-path">
      <rect id="Rectangle_10" data-name="Rectangle 10" width="1523" height="1101" transform="translate(0 0)" fill="#fff" stroke="#707070" stroke-width="1"/>
    </clipPath>
  </defs>
  <g id="Component_6_2" data-name="Component 6 – 2">
    <g id="Mask_Group_1" data-name="Mask Group 1" transform="translate(0 0)" clip-path="url(#clip-path)">
      <g id="Layer_1" data-name="Layer 1" transform="translate(0.054 29.877)">
        <g id="Group_1" data-name="Group 1" transform="translate(0 0)">
          <path id="Path_2" data-name="Path 2" d="M93.164,122.355s-32.1,2.112-34.263,32.492c-2.123,30.38-2.123,751.083-1.044,772.029,1.044,20.91,7.738,43.44,48.947,45.271,41.245,1.831,936.728-.563,1054.021-.563H1363.7c16.088,0,29.476-8.378,32.1-39.251,2.7-30.873,1.152-762.595,1.152-781.463s-10.15-31.4-47.147-31.4-1031.743-2.64-1256.684,2.887Z" transform="translate(34.072 66.689)" fill="#1f1e1e" fill-rule="evenodd"/>
          <path id="Path_3" data-name="Path 3" d="M57.142,449.933c-.036,152.6.252,284.86.684,293.66v.563H1295.578c44.988,0,52.474,20.206,41.5,44.144h26.633c16.088,0,29.476-8.378,32.176-39.251,1.008-11.546,1.4-120.78,1.547-254.2-66.834-35.907-216.411-60.161-572.754-44.567-470.145,20.558-670.4.246-767.5-.317Z" transform="translate(34.068 249.972)" fill="#030303" fill-rule="evenodd"/>
          <path id="Path_4" data-name="Path 4" d="M40.961,4.015S4.466,6.374,2.055,40.872C-.428,75.371-.428,894.114.8,917.946c1.188,23.832,8.818,49.389,55.641,51.5,46.86,2.077,1064.17-.669,1197.371-.669h230.556c18.247,0,33.471-9.5,36.494-44.637,3.023-35.062,1.3-866.337,1.3-887.74S1510.6.706,1468.6.706,296.458-2.286,40.961,4.015Z" transform="translate(0.006 0.004)" fill="#030303" fill-rule="evenodd"/>
          <path id="Path_5" data-name="Path 5" d="M73.579,38.34s-32.392,2.112-34.551,32.7c-2.159,30.7-2.159,757.842-1.116,779,1.116,21.087,7.846,43.827,49.451,45.658s721.827-.563,840.093-.563h204.787c16.232,0,29.692-8.413,32.391-39.6,2.7-31.154,1.152-769.459,1.152-788.469s-10.257-31.647-47.58-31.647S300.5,32.672,73.578,38.3Z" transform="translate(22.202 19.504)" fill="#d9bcbc" fill-rule="evenodd"/>
          <path id="Path_6" data-name="Path 6" d="M102.611,70.12s-28.649,1.9-30.592,28.937c-1.872,27.071-1.872,669.378-.972,688,.972,18.622,6.946,38.723,43.657,40.377,36.746,1.584,659.024-.528,763.5-.528h180.853c14.288,0,26.237-7.5,28.649-34.992,2.375-27.529.972-679.587.972-696.378s-9.034-28.021-41.965-28.021-743.71-2.359-944.106,2.535Z" transform="translate(42.009 37.571)" fill="#fff" fill-rule="evenodd"/>
          <path id="Path_7" data-name="Path 7" d="M806.712,38.34s-30.916,2.112-32.967,32.7c-2.015,30.7-2.088,757.842-1.008,779,1.008,21.087,7.414,45.764,47.076,45.658,320.712-.95-188.3-.563,126.255-.563h37.5c15.512,0,28.361-8.413,30.916-39.6,2.591-31.154,1.116-769.459,1.116-788.469s-9.753-31.647-45.312-31.647,52.762-2.746-163.542,2.887Z" transform="translate(460.202 19.504)" fill="#b45f4b" fill-rule="evenodd"/>
          <path id="Path_8" data-name="Path 8" d="M772.093,307.644c-.18,190.376.108,381.6.612,392.3,1.008,21.086,7.414,45.763,47.075,45.658,320.712-.95-188.3-.563,126.255-.563h37.538c15.44,0,28.325-8.413,30.88-39.6,1.3-15.665,1.584-210.793,1.548-403.07-76.984-.528-179.161,2.781-243.908,5.28Z" transform="translate(460.199 169.639)" fill="#d9bcbc" fill-rule="evenodd"/>
          <path id="Path_9" data-name="Path 9" d="M806.732,409.989v-1.514c-.576-16.3,2.843-32,11.445-45.13,25.338-38.265,78.928-44.285,111.319-20.77,27.821,20.277,31.78,63.928,24.654,95.645-14,61.253-101.458,69.209-135.973,16.933-8.6-12.99-11.949-28.9-11.445-45.2h0Zm20.551-.176c-.4,11.863,2.088,23.339,8.314,32.809,25.086,37.984,88.645,32.246,98.794-12.286,5.147-23.058,2.375-54.81-17.923-69.525-23.538-17.073-62.48-12.708-80.871,15.1-6.262,9.5-8.782,20.981-8.314,32.809Z" transform="translate(480.841 184.448)" fill="#040404" fill-rule="evenodd"/>
          <path id="Path_10" data-name="Path 10" d="M836.458,391.257v-.563c-.18-6.02,1.044-11.828,4.247-16.651,9.322-14.116,29.08-16.334,41.065-7.639,10.258,7.428,11.7,23.551,9.106,35.273-5.219,22.6-37.466,25.557-50.171,6.266a28.4,28.4,0,0,1-4.247-16.651Z" transform="translate(498.587 202.723)" fill="#b45f4b" fill-rule="evenodd"/>
          <path id="Path_11" data-name="Path 11" d="M806.732,535.022v-1.514c-.576-16.3,2.843-32,11.445-45.13,25.338-38.23,78.928-44.285,111.319-20.77,27.821,20.277,31.78,63.928,24.654,95.646-14,61.253-101.458,69.208-135.973,16.932-8.6-13.025-11.949-28.9-11.445-45.2h0Zm20.551-.176c-.4,11.863,2.088,23.339,8.314,32.809,25.086,37.984,88.645,32.211,98.794-12.286,5.147-23.058,2.375-54.81-17.923-69.525-23.538-17.073-62.48-12.708-80.871,15.1-6.262,9.5-8.782,20.945-8.314,32.809Z" transform="translate(480.841 254.614)" fill="#b45f4b" fill-rule="evenodd"/>
          <path id="Path_12" data-name="Path 12" d="M836.458,516.262V515.7c-.18-6.02,1.044-11.828,4.247-16.651,9.322-14.081,29.08-16.3,41.065-7.639,10.258,7.428,11.7,23.551,9.106,35.273-5.219,22.635-37.466,25.557-50.171,6.266a28.4,28.4,0,0,1-4.247-16.651Z" transform="translate(498.587 272.881)" fill="#030303" fill-rule="evenodd"/>
          <path id="Path_13" data-name="Path 13" d="M1492.317,8.861c0,21.4,1.8,852.678-1.26,887.74-3.023,35.132-18.247,44.637-36.495,44.637H1223.971c-133.237,0-1150.512,2.746-1197.371.6a91.325,91.325,0,0,1-23.826-3.907c5.543,15.876,19.111,28.9,52.006,30.38,46.86,2.112,1064.134-.6,1197.371-.6h230.556c18.247,0,33.471-9.5,36.495-44.637,3.023-35.027,1.3-866.337,1.3-887.74,0-16.369-6.73-28.514-28.649-33.372a53.56,53.56,0,0,1,.432,6.935Z" transform="translate(1.663 1.107)" fill="#030303" fill-rule="evenodd"/>
          <path id="Path_14" data-name="Path 14" d="M793.172,66.664c-4.427.282-8.314-2.816-8.6-6.829-.252-4.048,3.1-7.569,7.558-7.85.18,0,181.465-7.146,192.19-3.626,4.175,1.373,6.406,5.6,4.859,9.364-1.475,3.872-6.154,5.773-10.365,4.436C971.109,59.623,793.352,66.628,793.172,66.664Z" transform="translate(467.66 26.594)" fill="#030303" fill-rule="evenodd"/>
          <path id="Path_15" data-name="Path 15" d="M793.172,87.712c-4.427.282-8.314-2.746-8.6-6.794-.252-4.048,3.1-7.569,7.558-7.85.18,0,181.465-7.146,192.19-3.626,4.175,1.3,6.406,5.562,4.859,9.364-1.475,3.8-6.154,5.773-10.365,4.471C971.109,80.672,793.352,87.712,793.172,87.712Z" transform="translate(467.66 38.425)" fill="#030303" fill-rule="evenodd"/>
          <path id="Path_16" data-name="Path 16" d="M793.172,108.8c-4.427.282-8.314-2.781-8.6-6.829-.252-4.048,3.1-7.533,7.558-7.815.18,0,181.465-7.146,192.19-3.661,4.175,1.408,6.406,5.6,4.859,9.4-1.475,3.767-6.154,5.773-10.365,4.436C971.109,101.8,793.352,108.767,793.172,108.8Z" transform="translate(467.66 50.249)" fill="#030303" fill-rule="evenodd"/>
          <path id="Path_17" data-name="Path 17" d="M793.172,129.87c-4.427.282-8.314-2.816-8.6-6.829-.252-4.048,3.1-7.569,7.558-7.85.18,0,181.465-7.146,192.19-3.626,4.175,1.373,6.406,5.6,4.859,9.364-1.475,3.872-6.154,5.844-10.365,4.436C971.109,122.829,793.352,129.87,793.172,129.87Z" transform="translate(467.66 62.061)" fill="#030303" fill-rule="evenodd"/>
          <path id="Path_18" data-name="Path 18" d="M793.172,150.919c-4.427.282-8.314-2.746-8.6-6.794-.252-4.048,3.1-7.569,7.558-7.85.18,0,181.465-7.146,192.19-3.626,4.175,1.3,6.406,5.562,4.859,9.364-1.475,3.8-6.154,5.773-10.365,4.471C971.109,143.948,793.352,150.919,793.172,150.919Z" transform="translate(467.66 73.891)" fill="#030303" fill-rule="evenodd"/>
          <path id="Path_19" data-name="Path 19" d="M793.172,172.009c-4.427.282-8.314-2.781-8.6-6.829-.252-4.048,3.1-7.533,7.558-7.815.18,0,181.465-7.146,192.19-3.661,4.175,1.408,6.406,5.6,4.859,9.4-1.475,3.767-6.154,5.773-10.365,4.436-7.7-2.535-185.46,4.471-185.64,4.471Z" transform="translate(467.66 85.715)" fill="#030303" fill-rule="evenodd"/>
          <path id="Path_20" data-name="Path 20" d="M793.172,193.076c-4.427.282-8.314-2.781-8.6-6.829-.252-4.013,3.1-7.569,7.558-7.85.18,0,181.465-7.146,192.19-3.626,4.175,1.373,6.406,5.6,4.859,9.364-1.475,3.872-6.154,5.844-10.365,4.436C971.109,186.036,793.352,193.076,793.172,193.076Z" transform="translate(467.66 97.527)" fill="#030303" fill-rule="evenodd"/>
          <path id="Path_21" data-name="Path 21" d="M793.172,214.13c-4.427.282-8.314-2.746-8.6-6.794-.252-4.048,3.1-7.569,7.558-7.815.18-.035,181.465-7.217,192.19-3.661,4.175,1.3,6.406,5.562,4.859,9.364-1.475,3.8-6.154,5.773-10.365,4.471C971.109,207.159,793.352,214.13,793.172,214.13Z" transform="translate(467.66 109.353)" fill="#030303" fill-rule="evenodd"/>
          <path id="Path_22" data-name="Path 22" d="M793.172,235.215c-4.427.282-8.314-2.781-8.6-6.829-.252-4.013,3.1-7.533,7.558-7.815.18,0,181.465-7.146,192.19-3.661,4.175,1.408,6.406,5.6,4.859,9.4-1.475,3.767-6.154,5.773-10.365,4.436C971.109,228.21,793.352,235.215,793.172,235.215Z" transform="translate(467.66 121.182)" fill="#030303" fill-rule="evenodd"/>
          <path id="Path_23" data-name="Path 23" d="M793.172,256.287c-4.427.282-8.314-2.781-8.6-6.829-.252-4.013,3.1-7.569,7.558-7.815.18-.035,181.465-7.217,192.19-3.661,4.175,1.373,6.406,5.6,4.859,9.364-1.475,3.872-6.154,5.844-10.365,4.436C971.109,249.282,793.352,256.287,793.172,256.287Z" transform="translate(467.66 132.989)" fill="#030303" fill-rule="evenodd"/>
          <path id="Path_24" data-name="Path 24" d="M793.172,277.336c-4.427.282-8.314-2.746-8.6-6.794-.252-4.048,3.1-7.533,7.558-7.815.18-.035,181.465-7.217,192.19-3.661,4.175,1.3,6.406,5.562,4.859,9.4-1.475,3.767-6.154,5.738-10.365,4.436C971.109,270.366,793.352,277.336,793.172,277.336Z" transform="translate(467.66 144.82)" fill="#030303" fill-rule="evenodd"/>
          <path id="Path_25" data-name="Path 25" d="M793.172,298.421c-4.427.282-8.314-2.781-8.6-6.829-.252-4.013,3.1-7.533,7.558-7.815.18,0,181.465-7.146,192.19-3.661,4.175,1.408,6.406,5.6,4.859,9.4-1.475,3.8-6.154,5.773-10.365,4.436C971.109,291.416,793.352,298.421,793.172,298.421Z" transform="translate(467.66 156.649)" fill="#030303" fill-rule="evenodd"/>
        </g>
      </g>
    </g>
  </g>
  <g id="Rectangle_13" data-name="Rectangle 13" transform="translate(109 131)" fill="#1f1f1f" stroke="#707070" stroke-width="1">
    <rect width="1025" height="769" rx="36" stroke="none"/>
    <rect x="0.5" y="0.5" width="1024" height="768" rx="35.5" fill="none"/>
  </g>
</svg>
