<svg xmlns="http://www.w3.org/2000/svg" xmlns:xlink="http://www.w3.org/1999/xlink" viewBox="0 0 70 65.69">
  <defs>
    <clipPath id="clip-path" transform="translate(0)">
      <rect width="70" height="65.69" fill="none"/>
    </clipPath>
  </defs>
  <title>Asset 1</title>
  <metadata><?xpacket begin="﻿" id="W5M0MpCehiHzreSzNTczkc9d"?>
<x:xmpmeta xmlns:x="adobe:ns:meta/" x:xmptk="Adobe XMP Core 5.6-c137 79.159768, 2016/08/11-13:24:42        ">
   <rdf:RDF xmlns:rdf="http://www.w3.org/1999/02/22-rdf-syntax-ns#">
      <rdf:Description rdf:about=""
            xmlns:dc="http://purl.org/dc/elements/1.1/">
         <dc:title>
            <rdf:Alt>
               <rdf:li xml:lang="x-default">Asset 1</rdf:li>
            </rdf:Alt>
         </dc:title>
      </rdf:Description>
   </rdf:RDF>
</x:xmpmeta>
                                                                                                    
                                                                                                    
                                                                                                    
                                                                                                    
                                                                                                    
                                                                                                    
                                                                                                    
                                                                                                    
                                                                                                    
                                                                                                    
                                                                                                    
                                                                                                    
                                                                                                    
                                                                                                    
                                                                                                    
                                                                                                    
                                                                                                    
                                                                                                    
                                                                                                    
                                                                                                    
                           
<?xpacket end="w"?></metadata>
<g id="Layer_2" data-name="Layer 2">
    <g id="Layer_1-2" data-name="Layer 1">
      <g>
        <rect x="17" y="30.67" width="35.67" height="31.33" fill="#8d6642" stroke="#000" stroke-miterlimit="10"/>
        <g clip-path="url(#clip-path)">
          <g id="Component">
            <path id="Path_1" data-name="Path 1" d="M69.12,48.52,37.19,1.16a2.64,2.64,0,0,0-4.37,0L.89,48.54a5.18,5.18,0,0,0,0,5.74l6,9.09a5.18,5.18,0,0,0,4.33,2.33H58.8a5.18,5.18,0,0,0,4.32-2.32l6-9.1A5.18,5.18,0,0,0,69.12,48.52ZM24.6,59.37a1.33,1.33,0,0,1-1.33,1.33H19.58a1.33,1.33,0,0,1-1.33-1.33h0V33.77a1.33,1.33,0,0,1,1.33-1.33h3.69a1.33,1.33,0,0,1,1.33,1.33h0Zm27.14,0a1.33,1.33,0,0,1-1.33,1.33H46.73a1.33,1.33,0,0,1-1.33-1.33h0V51.52a1.33,1.33,0,0,0-.39-.94l-1.26-1.26a1.33,1.33,0,0,0-.94-.39H32.28A1.33,1.33,0,0,1,31,47.61h0V44.46a1.33,1.33,0,0,1,1.33-1.33H42.82a1.33,1.33,0,0,0,.94-.39L45,41.49a1.32,1.32,0,0,0,.39-.94V33.77a1.33,1.33,0,0,1,1.33-1.33h3.69a1.33,1.33,0,0,1,1.33,1.33h0Z" transform="translate(0)" fill="#201f1d"/>
          </g>
        </g>
      </g>
    </g>
  </g>
</svg>
