<svg xmlns="http://www.w3.org/2000/svg" width="55.656" height="58.103" viewBox="0 0 55.656 58.103">
  <path id="Icon_awesome-linkedin-in" data-name="Icon awesome-linkedin-in" d="M12.458,58.1H.919V19.311H12.458ZM6.682,14.02A6.894,6.894,0,0,1,0,6.977,6.834,6.834,0,0,1,6.682,0a6.834,6.834,0,0,1,6.682,6.976A6.9,6.9,0,0,1,6.682,14.02ZM55.644,58.1H44.13V39.22c0-4.5-.087-10.272-6-10.272-6,0-6.919,4.89-6.919,9.948V58.1H19.686V19.311H30.752V24.6h.162a12.043,12.043,0,0,1,10.918-6.264c11.678,0,13.825,8.028,13.825,18.456V58.1Z" transform="translate(0 -0.001)" fill="#b45f4b"/>
</svg>
