<svg xmlns="http://www.w3.org/2000/svg" width="57.919" height="56.472" viewBox="0 0 57.919 56.472">
  <path id="Icon_awesome-github" data-name="Icon awesome-github" d="M19.373,46.034c0,.234-.269.42-.607.42-.385.035-.654-.152-.654-.42,0-.234.269-.42.607-.42C19.069,45.578,19.373,45.765,19.373,46.034Zm-3.632-.525c-.082.234.152.5.5.572a.548.548,0,0,0,.724-.234c.07-.234-.152-.5-.5-.607A.6.6,0,0,0,15.741,45.508Zm5.161-.2c-.339.082-.572.3-.537.572.035.234.339.385.689.3s.572-.3.537-.537S21.241,45.275,20.9,45.31ZM28.586.563C12.39.563,0,12.859,0,29.055A29.276,29.276,0,0,0,19.793,56.987c1.495.269,2.02-.654,2.02-1.413,0-.724-.035-4.718-.035-7.17,0,0-8.174,1.752-9.891-3.48,0,0-1.331-3.4-3.246-4.274,0,0-2.674-1.833.187-1.8a6.164,6.164,0,0,1,4.507,3.013c2.557,4.507,6.843,3.211,8.513,2.441a6.49,6.49,0,0,1,1.868-3.935C17.189,39.646,10.6,38.7,10.6,27.467a8.85,8.85,0,0,1,2.756-6.878,11.033,11.033,0,0,1,.3-7.929c2.441-.759,8.057,3.153,8.057,3.153a27.586,27.586,0,0,1,14.667,0S42,11.889,44.444,12.66a11.028,11.028,0,0,1,.3,7.929c1.868,2.067,3.013,3.678,3.013,6.878,0,11.269-6.878,12.168-13.406,12.9,1.074.923,1.985,2.674,1.985,5.418,0,3.935-.035,8.8-.035,9.762,0,.759.537,1.682,2.02,1.413C50,53.087,57.919,42.005,57.919,29.055,57.919,12.859,44.782.563,28.586.563ZM11.35,40.837c-.152.117-.117.385.082.607.187.187.455.269.607.117.152-.117.117-.385-.082-.607C11.771,40.767,11.5,40.686,11.35,40.837Zm-1.261-.946c-.082.152.035.339.269.455a.347.347,0,0,0,.5-.082c.082-.152-.035-.339-.269-.455C10.358,39.74,10.171,39.775,10.089,39.892Zm3.783,4.157c-.187.152-.117.5.152.724.269.269.607.3.759.117.152-.152.082-.5-.152-.724C14.375,43.9,14.024,43.862,13.873,44.049Zm-1.331-1.717c-.187.117-.187.42,0,.689s.5.385.654.269a.533.533,0,0,0,0-.724C13.032,42.3,12.728,42.18,12.541,42.332Z" transform="translate(0 -0.563)" fill="#b45f4b"/>
</svg>
