<svg xmlns="http://www.w3.org/2000/svg" width="56.807" height="62.645" viewBox="0 0 56.807 62.645">
  <path id="Icon_simple-email" data-name="Icon simple-email" d="M58.439,28.913A32.307,32.307,0,0,1,57.4,35.92a20.278,20.278,0,0,1-2.725,6.154,14.377,14.377,0,0,1-4.619,4.373,13.036,13.036,0,0,1-6.745,1.664,9.778,9.778,0,0,1-4.878-1.194,8.353,8.353,0,0,1-3.3-3.378A10.447,10.447,0,0,1,26.3,47.977a8.988,8.988,0,0,1-7.716-4.149,13.584,13.584,0,0,1-1.918-4.807,20.732,20.732,0,0,1-.251-6.271,29.131,29.131,0,0,1,1.91-7.68,20.876,20.876,0,0,1,3.531-5.884,14.937,14.937,0,0,1,4.854-3.75,13.545,13.545,0,0,1,5.9-1.311,18.356,18.356,0,0,1,3.531.3,14.453,14.453,0,0,1,2.74.822,14.818,14.818,0,0,1,2.27,1.2c.693.446,1.39.908,2.083,1.378L41.52,37.553a6.558,6.558,0,0,0,.051,2.31,3.231,3.231,0,0,0,.7,1.425,2.536,2.536,0,0,0,1.143.744,4.243,4.243,0,0,0,4.016-.791,8.56,8.56,0,0,0,2.153-2.74,17.648,17.648,0,0,0,1.448-4.118,28.256,28.256,0,0,0,.634-5.128,32.773,32.773,0,0,0-.806-9.583,19.048,19.048,0,0,0-3.547-7.414A16.469,16.469,0,0,0,40.96,7.481a23.074,23.074,0,0,0-9.262-1.7,20.45,20.45,0,0,0-9.16,2,21.017,21.017,0,0,0-6.96,5.535,26.565,26.565,0,0,0-4.557,8.326A37.522,37.522,0,0,0,9.1,32.017,34.5,34.5,0,0,0,10.082,42.6a19.118,19.118,0,0,0,3.868,7.586A16.14,16.14,0,0,0,20.5,54.746a25.136,25.136,0,0,0,9.043,1.511,30.973,30.973,0,0,0,5.935-.638c.979-.2,1.906-.431,2.791-.689a21.007,21.007,0,0,0,2.4-.861l1.241,5.582a13.775,13.775,0,0,1-2.689,1.331,25.888,25.888,0,0,1-3.179.92,31.016,31.016,0,0,1-6.639.744A34.817,34.817,0,0,1,17.3,60.7a22.277,22.277,0,0,1-8.824-5.8,24.365,24.365,0,0,1-5.3-9.579,40.86,40.86,0,0,1-1.48-13.3A40.555,40.555,0,0,1,4.249,19.256a31.583,31.583,0,0,1,6.13-10.139,27.935,27.935,0,0,1,9.352-6.69A29.28,29.28,0,0,1,31.843,0,30.569,30.569,0,0,1,43.579,2.1,22.826,22.826,0,0,1,52.05,8.013a24.258,24.258,0,0,1,5.026,9.133A34.921,34.921,0,0,1,58.439,28.913ZM24.82,32.75q-.37,4.363.689,6.6a3.541,3.541,0,0,0,3.406,2.231,3.762,3.762,0,0,0,1.167-.215,4.16,4.16,0,0,0,1.343-.806,7.166,7.166,0,0,0,1.362-1.644,12.617,12.617,0,0,0,1.253-2.779l1.339-15.33a8,8,0,0,0-2.083-.274,7.2,7.2,0,0,0-3.464.795,6.858,6.858,0,0,0-2.454,2.333A13.7,13.7,0,0,0,25.748,27.5a32.543,32.543,0,0,0-.924,5.246Z" transform="translate(-1.67)" fill="#b45f4b"/>
</svg>
